<svg width="40" height="40" viewBox="0 0 40 40" fill="none" xmlns="http://www.w3.org/2000/svg">
<rect width="40" height="40" rx="20" fill="#7289DA"/>
<path d="M28.3303 12.5559C26.7767 11.8291 25.1156 11.3008 23.3789 11C23.1656 11.3856 22.9164 11.9043 22.7446 12.3169C20.8985 12.0392 19.0693 12.0392 17.2572 12.3169C17.0854 11.9043 16.8306 11.3856 16.6154 11C14.8768 11.3008 13.2138 11.831 11.6602 12.5598C8.52664 17.295 7.67719 21.9126 8.10192 26.4646C10.1803 28.0166 12.1944 28.9595 14.1746 29.5764C14.6635 28.9035 15.0995 28.1882 15.4752 27.4344C14.7598 27.1626 14.0745 26.8271 13.4271 26.4376C13.5988 26.3104 13.7669 26.1773 13.9292 26.0404C17.8782 27.8875 22.1689 27.8875 26.0707 26.0404C26.235 26.1773 26.403 26.3104 26.5728 26.4376C25.9235 26.829 25.2364 27.1645 24.521 27.4363C24.8966 28.1882 25.3308 28.9055 25.8216 29.5783C27.8036 28.9614 29.8197 28.0186 31.898 26.4646C32.3964 21.1876 31.0467 16.6125 28.3303 12.5559ZM16.0132 23.6651C14.8277 23.6651 13.8556 22.5585 13.8556 21.2108C13.8556 19.8631 14.807 18.7545 16.0132 18.7545C17.2194 18.7545 18.1916 19.8612 18.1708 21.2108C18.1727 22.5585 17.2194 23.6651 16.0132 23.6651ZM23.9867 23.6651C22.8013 23.6651 21.8291 22.5585 21.8291 21.2108C21.8291 19.8631 22.7805 18.7545 23.9867 18.7545C25.193 18.7545 26.1651 19.8612 26.1444 21.2108C26.1444 22.5585 25.193 23.6651 23.9867 23.6651Z" fill="white"/>
</svg>
