<svg width="40" height="40" viewBox="0 0 40 40" fill="none" xmlns="http://www.w3.org/2000/svg">
<rect width="40" height="40" rx="20" fill="#F79A38"/>
<path fill-rule="evenodd" clip-rule="evenodd" d="M20.1611 8.21521C19.997 8.40097 19.9682 8.64796 19.996 9.62884L20.0299 10.8175L20.6427 10.8537C21.2146 10.8875 21.2606 10.8695 21.3308 10.5827C21.3722 10.4136 21.3863 9.87428 21.3621 9.38402C21.3296 8.72424 21.2606 8.42743 21.0963 8.24143C20.8209 7.92971 20.4232 7.91864 20.1611 8.21521ZM13.2991 11.123C12.8821 11.521 12.9816 11.8052 13.8605 12.7266C14.6755 13.581 14.6803 13.5839 15.0027 13.4012C15.1808 13.3003 15.407 13.0686 15.5054 12.8862C15.6838 12.556 15.681 12.551 14.8469 11.7161C14.3863 11.2549 13.9073 10.8777 13.7827 10.8777C13.6581 10.8777 13.4404 10.9881 13.2991 11.123ZM26.482 11.6158C26.0693 12.0217 25.6987 12.4598 25.6586 12.5895C25.5737 12.8638 26.1209 13.5245 26.4332 13.5245C26.7067 13.5245 28.1922 11.9162 28.1922 11.62C28.1922 11.3577 27.6818 10.8777 27.4028 10.8777C27.309 10.8777 26.8947 11.2098 26.482 11.6158ZM18.7091 13.6749C18.5738 13.8237 17.0754 16.8297 15.3794 20.3549L12.2957 26.7642L12.5343 27.0923C12.7638 27.4075 12.8199 27.4215 13.9818 27.4548C15.0538 27.4853 15.2183 27.4622 15.4375 27.2501C15.5733 27.1186 16.7674 24.7886 18.0909 22.0723C19.4145 19.3561 20.5243 17.1351 20.5572 17.1368C20.6211 17.14 23.3635 23.6117 23.4582 23.9826C23.5091 24.1822 23.3368 24.1596 21.596 23.7374C19.527 23.2357 19.0157 23.1797 18.8115 23.4317C18.7393 23.521 18.3854 25.3451 18.0252 27.4853C17.3273 31.6327 17.3208 31.8498 17.8891 31.9958C18.1805 32.0708 20.2966 31.1119 20.5615 30.7849C20.6374 30.6913 20.8391 29.693 21.0096 28.5663C21.2529 26.9598 21.358 26.5181 21.497 26.519C21.5943 26.5195 22.4668 26.7355 23.4357 26.9991C24.9588 27.4135 25.3644 27.4782 26.4305 27.4775C27.7451 27.4767 27.8455 27.4491 28.0605 27.0307C28.2253 26.7102 28.354 27.0414 25.0317 19.2392C23.7354 16.1953 22.585 13.6373 22.475 13.5545C22.3374 13.451 21.7582 13.4042 20.6151 13.4042C19.0448 13.4042 18.9418 13.4188 18.7091 13.6749ZM10.1742 18.1189C9.90922 18.5064 9.94351 18.7644 10.298 19.0499C10.5539 19.2561 10.7723 19.299 11.5605 19.2975C12.0846 19.2964 12.5828 19.2506 12.6675 19.1956C12.7694 19.1295 12.8091 18.8962 12.7849 18.5056L12.7484 17.9158L11.5541 17.8816C10.4287 17.8494 10.349 17.8631 10.1742 18.1189ZM28.3318 18.0796C28.2299 18.1458 28.1902 18.3791 28.2144 18.7696L28.2509 19.3595L29.4253 19.3946C30.5078 19.4271 30.6158 19.4095 30.8053 19.1708C31.0808 18.8235 31.0642 18.5174 30.7537 18.2212C30.5362 18.0136 30.3423 17.9762 29.4912 17.9777C28.9383 17.9788 28.4165 18.0246 28.3318 18.0796Z" fill="white"/>
</svg>
