<svg width="24" height="24" viewBox="0 0 24 24" fill="none" xmlns="http://www.w3.org/2000/svg">
<path d="M10.1364 15.3333V18.875C10.1364 19.4386 10.359 19.9791 10.7554 20.3776C11.1518 20.7761 11.6894 21 12.25 21H17.8864C18.4469 21 18.9845 20.7761 19.3809 20.3776C19.7773 19.9791 20 19.4386 20 18.875L20 6.125C20 5.56142 19.7773 5.02091 19.3809 4.6224C18.9845 4.22388 18.4469 4 17.8864 4H12.25C11.6894 4 11.1518 4.22388 10.7554 4.6224C10.359 5.02091 10.1364 5.56142 10.1364 6.125V9.66667M13.6591 15.3333L16.4773 12.5M16.4773 12.5L13.6591 9.66667M16.4773 12.5L4.5 12.5" stroke="#53505E" stroke-linecap="round" stroke-linejoin="round"/>
</svg>
